<?xml version="1.0" encoding="iso-8859-1"?>
<!-- Generator: Adobe Illustrator 19.0.0, SVG Export Plug-In . SVG Version: 6.00 Build 0)  -->
<svg version="1.1" id="Layer_1" xmlns="http://www.w3.org/2000/svg" xmlns:xlink="http://www.w3.org/1999/xlink" x="0px" y="0px"
	 viewBox="0 0 512 512" style="enable-background:new 0 0 512 512;" xml:space="preserve">
<g>
	<g>
		<path d="M283.826,0h-55.652C126.407,0,42.75,78.487,34.236,178.087h443.527C469.25,78.487,385.593,0,283.826,0z M172.522,144.696
			H139.13c-9.217,0-16.696-7.473-16.696-16.696c0-9.223,7.479-16.696,16.696-16.696h33.391c9.217,0,16.696,7.473,16.696,16.696
			C189.217,137.223,181.739,144.696,172.522,144.696z M172.522,61.217c0-9.223,7.479-16.696,16.696-16.696h33.391
			c9.217,0,16.696,7.473,16.696,16.696s-7.479,16.696-16.696,16.696h-33.391C180,77.913,172.522,70.44,172.522,61.217z
			 M272.696,144.696h-33.391c-9.217,0-16.696-7.473-16.696-16.696c0-9.223,7.479-16.696,16.696-16.696h33.391
			c9.217,0,16.696,7.473,16.696,16.696C289.391,137.223,281.913,144.696,272.696,144.696z M272.696,61.217
			c0-9.223,7.479-16.696,16.696-16.696h33.391c9.217,0,16.696,7.473,16.696,16.696S332,77.913,322.783,77.913h-33.391
			C280.174,77.913,272.696,70.44,272.696,61.217z M372.87,144.696h-33.391c-9.217,0-16.696-7.473-16.696-16.696
			c0-9.223,7.479-16.696,16.696-16.696h33.391c9.217,0,16.696,7.473,16.696,16.696C389.565,137.223,382.087,144.696,372.87,144.696z
			"/>
	</g>
</g>
<g>
	<g>
		<polygon points="294.715,311.652 322.783,338.598 350.85,311.652 		"/>
	</g>
</g>
<g>
	<g>
		<path d="M461.913,311.652h-62.845l-64.72,62.13c-3.228,3.103-7.402,4.652-11.566,4.652s-8.337-1.549-11.566-4.652l-64.72-62.13
			H50.087C22.423,311.652,0,334.077,0,361.739s22.423,50.087,50.087,50.087h411.826c27.664,0,50.087-22.424,50.087-50.087
			S489.577,311.652,461.913,311.652z"/>
	</g>
</g>
<g>
	<g>
		<path d="M478.609,211.478H33.391C14.949,211.478,0,226.428,0,244.87s14.949,33.391,33.391,33.391h445.217
			c18.442,0,33.391-14.949,33.391-33.391S497.051,211.478,478.609,211.478z"/>
	</g>
</g>
<g>
	<g>
		<path d="M45.921,445.217C65.953,484.289,108.133,512,155.826,512h205.913c46.494,0,86.557-27.369,105.328-66.783H45.921z"/>
	</g>
</g>
<g>
</g>
<g>
</g>
<g>
</g>
<g>
</g>
<g>
</g>
<g>
</g>
<g>
</g>
<g>
</g>
<g>
</g>
<g>
</g>
<g>
</g>
<g>
</g>
<g>
</g>
<g>
</g>
<g>
</g>
</svg>
